<?xml version="1.0" encoding="utf-8"?>
<!-- Generator: Adobe Illustrator 22.1.0, SVG Export Plug-In . SVG Version: 6.00 Build 0)  -->
<svg version="1.1" id="Layer_1" xmlns="http://www.w3.org/2000/svg" xmlns:xlink="http://www.w3.org/1999/xlink" x="0px" y="0px"
	 viewBox="0 0 100 100" style="enable-background:new 0 0 100 100;" xml:space="preserve">
<style type="text/css">
	.st0{fill:#FFFFFF;}
	.st1{fill:#001F42;}
</style>
<path class="st0" d="M93.3,55.8L72,18.4C68.4,9.8,59.9,3.7,49.9,3.7c-9.7,0-18.1,5.8-21.8,14.1L6.5,55.1c-2.9,4-4.6,8.9-4.6,14.2
	c0,13.2,10.7,24,24,24c0.7,0,47.1,0,47.7,0c13.2,0,24-10.7,24-24C97.5,64.3,96,59.6,93.3,55.8L93.3,55.8z"/>
<path class="st1" d="M55.1,71H44.2c-1.1,0-2,0.9-2,2c0,1.1,0.9,2,2,2h10.9c1.1,0,2-0.9,2-2C57.2,71.9,56.3,71,55.1,71L55.1,71z
	 M68.7,36.8c-1.6-1.4-3.5-2-3.5-2l-4.6-0.3c0,0-1-0.3-2.1-0.6c-1-0.3-2.1-0.6-2.1-0.6c0-0.1-0.2-0.1-0.4-0.2
	c-0.2-0.1-0.4-0.2-0.4-0.2c-0.6-0.3-1.8-0.6-3-0.8c-1.2-0.2-2.5-0.3-3.2-0.3c-0.8,0-2,0.1-3.2,0.3c-1.1,0.2-2.2,0.5-2.8,0.8
	c-0.1,0-0.3,0.1-0.4,0.2c-0.2,0.1-0.3,0.2-0.4,0.2c0,0-1.1,0.3-2.1,0.6c-1,0.3-2.1,0.6-2.1,0.6l-4.6,0.3c0,0-1.9,0.6-3.5,2
	c-1.6,1.4-2.9,3.6-1.9,6.9c0,0,0.5,1.2,1.1,2.3c0.5,1.1,1.1,2.2,1.1,2.2l1.1,3.7l0.5,2l0.5,2l1.4,4.5l0.9,3.5l0.9,3.5l0.1,0.4
	l0.2,0.2c0,0,0,0,0,0l0,0l8.4,0c0,0,0,0,0,0c0.9,0,1.7-0.8,1.7-1.8c0-1-0.8-1.8-1.8-1.8l-4.3,0l1.2-12.2c0,0-0.9-0.2-1.9-1
	c-1-0.8-2-2.1-2.4-4.2c0,0,7.6,0,7.6,0L43.9,61l11.4,0l-1.1-13.8c0,0,7.7,0,7.6,0c-0.4,2.1-1.4,3.4-2.4,4.2c-1,0.8-1.9,1-1.9,1
	l1.2,12.1l-4.2,0c-1,0-1.8,0.8-1.8,1.8c0,0.9,0.7,1.7,1.6,1.8c0.1,0,0.1,0,0.1,0l8.5,0l0.3-0.2l0.2-0.7l1.6-6.8l1.4-4.5l1-4.1
	l1.1-3.7c0,0,0.5-1.1,1.1-2.2c0.5-1.1,1.1-2.2,1.1-2.3C71.6,40.4,70.3,38.2,68.7,36.8L68.7,36.8z"/>
</svg>
