<?xml version="1.0" encoding="utf-8"?>
<!-- Generator: Adobe Illustrator 22.1.0, SVG Export Plug-In . SVG Version: 6.00 Build 0)  -->
<svg version="1.1" id="Layer_1" xmlns="http://www.w3.org/2000/svg" xmlns:xlink="http://www.w3.org/1999/xlink" x="0px" y="0px"
	 viewBox="0 0 100 100" style="enable-background:new 0 0 100 100;" xml:space="preserve">
<style type="text/css">
	.st0{fill:none;}
	.st1{fill:#998E4A;}
	.st2{fill:#121F42;}
	.st3{fill:#16254C;}
</style>
<g>
	<path class="st0" d="M86,13.3c-6-1.5-19.1-4.1-36.3-4.1C32,9.2,20,12.3,14.9,14c-1.7,0.6-3,2-3.2,3.8c-1,6.4-2.3,22.9,5.9,40.3
		c1.2,2.6,2.6,5.2,4.3,7.7c0.4,0,0.7,0.1,1.1,0.1c0.2,0,0.5,0,0.7,0.1h0.5c2.1,0.2,3.9,0.3,5.6,0.5H30h0.2c0.4,0,0.8,0,1.2,0.1
		c6.4,0.4,13,0.6,19.6,0.6c6.7,0,13.3-0.2,19.9-0.6c1.4-0.1,3.3-0.2,5.2-0.4h0.2h0.2c0.3,0,0.6-0.1,0.9-0.1c1.4-2.4,2.8-5,4-7.9
		c4.5-10.2,7.9-23.4,8.3-40.3C89.7,15.9,88.2,13.9,86,13.3z"/>
	<g>
		<path class="st1" d="M92.3,73.1L92.3,73.1L91.4,67c0-0.1-0.1-0.2-0.1-0.3l0,0c-0.1-0.1-0.1-0.2-0.2-0.2l0,0
			c-0.1-0.1-0.2-0.1-0.3-0.2c0,0,0,0-0.1,0s-0.2-0.1-0.3-0.1c-0.1,0-0.1,0-0.2,0c-4.5,0.6-9.1,1.1-13.8,1.5c-0.1,0-0.3,0-0.4,0
			c-1.7,0.1-3.4,0.3-5.2,0.4c-6.5,0.4-13.1,0.6-19.9,0.6c-7,0-14.1-0.2-20.9-0.7c-0.1,0-0.3,0-0.4,0c-1.9-0.1-3.8-0.3-5.6-0.5
			c-0.4,0-0.8-0.1-1.2-0.1c-4.3-0.4-8.4-0.9-12.5-1.5c-0.1,0-0.1,0-0.2,0c-0.1,0-0.2,0-0.3,0.1c0,0,0,0-0.1,0s-0.2,0.1-0.3,0.2l0,0
			c-0.1,0.1-0.1,0.2-0.2,0.2l0,0c-0.1,0.1-0.1,0.2-0.1,0.3l0,0L8.2,73L8,74.5l-0.9,5.8c0,0.1,0,0.3,0,0.4c0.1,0.3,0.3,0.6,0.7,0.7
			c0.1,0,0.1,0,0.2,0.1c1.7,0.2,3.4,0.5,5.1,0.7c5.1,0.6,10.4,1.1,15.7,1.5c3.2,0.2,6.5,0.4,9.9,0.5c4,0.1,8.1,0.2,12.2,0.2
			c3.7,0,7.4-0.1,11-0.2c5.2-0.2,10.4-0.5,15.5-0.9s10.1-1,15-1.7c0.3,0,0.5-0.2,0.7-0.4c0.1-0.2,0.2-0.4,0.2-0.6c0-0.1,0-0.1,0-0.2
			L92.3,73.1z"/>
		<path class="st1" d="M8.1,65.9L8.1,65.9l0.1-0.1c0.1-0.2,0.3-0.4,0.5-0.6l0.1-0.1C9,65,9.2,64.8,9.4,64.7h0.1
			c0.2-0.1,0.5-0.1,0.7-0.1h0.1c0.1,0,0.2,0,0.3,0c3,0.4,6.3,0.8,9.7,1.2c-1.4-2.3-2.7-4.6-3.8-7c-0.1-0.2-0.2-0.5-0.3-0.7
			c-4.2-0.4-8.2-0.9-12-1.4c-0.1,0-0.1,0-0.2,0c-0.1,0-0.2,0-0.3,0.1c0,0,0,0-0.1,0S3.4,56.9,3.3,57l0,0c-0.1,0.1-0.1,0.2-0.2,0.2
			l0,0c0,0.1-0.1,0.2-0.1,0.3l0,0l2.6,5L7,65.2l0,0L1,71c0,0.1,0,0.3,0,0.4c0.1,0.3,0.3,0.6,0.7,0.7c0.1,0,0.1,0,0.2,0.1
			c1.7,0.2,3.4,0.5,5.1,0.7l0,0l0,0l0.9-6.3C7.9,66.3,8,66.1,8.1,65.9z"/>
		<path class="st1" d="M99.6,71l-6-5.8l0,0l1.4-2.6l2.6-5l0,0c0-0.1-0.1-0.2-0.1-0.3l0,0c-0.1-0.1-0.1-0.2-0.2-0.2l0,0
			C97.2,57,97.1,57,97,56.9c0,0,0,0-0.1,0s-0.2-0.1-0.3-0.1c-0.1,0-0.1,0-0.2,0c-4,0.6-8.2,1.1-12.5,1.5c-0.4,0-0.7,0.1-1.1,0.1
			c-0.1,0.2-0.2,0.4-0.3,0.7c-1.1,2.5-2.3,4.9-3.6,7.2c3.8-0.4,7.6-0.8,11.2-1.3c0.1,0,0.2,0,0.3,0h0.1c0.2,0,0.5,0,0.7,0.1h0.1
			c0.2,0.1,0.4,0.2,0.6,0.4l0.1,0.1c0.2,0.2,0.3,0.4,0.5,0.6c0,0,0,0.1,0.1,0.1c0.1,0.2,0.2,0.5,0.2,0.7l0.8,6.1l0,0c0,0,0,0,0.1,0
			c1.7-0.2,3.4-0.4,5.1-0.7c0.1,0,0.1,0,0.2-0.1c0.3-0.1,0.6-0.4,0.7-0.7C99.6,71.3,99.6,71.2,99.6,71z"/>
	</g>
	<g>
		<path class="st2" d="M28.5,70.7l-0.2,1.7c0,0.1-0.1,0.2-0.2,0.2l-0.6-0.1c-0.1,0-0.2,0.1-0.2,0.2l-0.6,6c0,0.1,0.1,0.2,0.2,0.2
			l0.6,0.1c0.1,0,0.2,0.1,0.2,0.2l-0.2,1.7c0,0.1-0.1,0.2-0.2,0.2l-3.8-0.4c-0.1,0-0.2-0.1-0.2-0.2l0.2-1.7c0-0.1,0.1-0.2,0.2-0.2
			l0.6,0.1c0.1,0,0.2-0.1,0.2-0.2l0.3-3.6c0-0.2-0.3-0.3-0.4-0.2L22.7,77c-0.1,0.1-0.3,0.1-0.4,0L21,74.4c-0.1-0.2-0.4-0.1-0.4,0.1
			l-0.3,3.6c0,0.1,0.1,0.2,0.2,0.2l0.6,0.1c0.1,0,0.2,0.1,0.2,0.2l-0.2,1.7c0,0.1-0.1,0.2-0.2,0.2l-3.8-0.4c-0.1,0-0.2-0.1-0.2-0.2
			l0.2-1.7c0-0.1,0.1-0.2,0.2-0.2l0.6,0.1c0.1,0,0.2-0.1,0.2-0.2l0.6-6c0-0.1-0.1-0.2-0.2-0.2l-0.6-0.1c-0.1,0-0.2-0.1-0.2-0.2
			l0.2-1.7c0-0.1,0.1-0.2,0.2-0.2l2.9,0.3c0.1,0,0.1,0.1,0.2,0.1l1.6,3.1c0.1,0.1,0.3,0.2,0.4,0l2.1-2.8c0-0.1,0.1-0.1,0.2-0.1
			l2.9,0.3C28.4,70.4,28.5,70.5,28.5,70.7z"/>
		<path class="st2" d="M43.8,80l-0.1,1.7c0,0.1-0.1,0.2-0.2,0.2l-3.8-0.2c-0.1,0-0.2-0.1-0.2-0.2l0.1-1.7c0-0.1,0.1-0.2,0.2-0.2h0.8
			l-0.2-0.9c0-0.1-0.1-0.2-0.2-0.2l-3-0.1c-0.1,0-0.2,0.1-0.2,0.2l-0.3,0.9h0.8c0.1,0,0.2,0.1,0.2,0.2l-0.1,1.7
			c0,0.1-0.1,0.2-0.2,0.2l-3.8-0.2c-0.1,0-0.2-0.1-0.2-0.2l0.1-1.7c0-0.1,0.1-0.2,0.2-0.2h0.6c0.1,0,0.2-0.1,0.2-0.2l2.8-8.2
			c0-0.1,0.1-0.2,0.2-0.2l2.9,0.1c0.1,0,0.2,0.1,0.2,0.2l2.2,8.4c0,0.1,0.1,0.2,0.2,0.2h0.6C43.8,79.8,43.9,79.9,43.8,80z
			 M39.4,76.4c0.2,0,0.3-0.1,0.2-0.3l-0.8-3h-0.1l-1,2.9c0,0.1,0.1,0.3,0.2,0.3L39.4,76.4z"/>
		<path class="st2" d="M53.7,71.3c0.6,0,1.2,0.1,1.7,0.3c0.5,0.2,1,0.5,1.4,0.9s0.7,0.8,0.9,1.4c0.2,0.5,0.3,1.1,0.3,1.7v2.1
			c0,0.6-0.1,1.2-0.3,1.7s-0.5,1-0.9,1.4s-0.8,0.7-1.4,0.9c-0.4,0.2-1,0.3-1.6,0.3h-4.1c-0.1,0-0.2-0.1-0.2-0.2v-1.7
			c0-0.1,0.1-0.2,0.2-0.2h0.6c0.1,0,0.2-0.1,0.2-0.2v-6c0-0.1-0.1-0.2-0.2-0.2h-0.6c-0.1,0-0.2-0.1-0.2-0.2v-1.7
			c0-0.1,0.1-0.2,0.2-0.2L53.7,71.3z M53.8,79.9c0.3,0,0.6-0.1,0.8-0.2c0.3-0.1,0.5-0.3,0.7-0.5s0.3-0.4,0.5-0.7
			c0.1-0.3,0.2-0.5,0.2-0.8v-2.1c0-0.3-0.1-0.6-0.2-0.8c-0.1-0.3-0.3-0.5-0.5-0.7s-0.4-0.3-0.7-0.5c-0.3-0.1-0.5-0.2-0.8-0.2H53
			c-0.1,0-0.2,0.1-0.2,0.2v6c0,0.1,0.1,0.2,0.2,0.2L53.8,79.9z"/>
		<path class="st2" d="M67.2,79.6h0.6c0.1,0,0.2,0.1,0.2,0.2l0.1,1.7c0,0.1-0.1,0.2-0.2,0.2L64,81.8c-0.1,0-0.2-0.1-0.2-0.2
			l-0.1-1.7c0-0.1,0.1-0.2,0.2-0.2h0.6c0.1,0,0.2-0.1,0.2-0.2l-0.3-6c0-0.1-0.1-0.2-0.2-0.2h-0.6c-0.1,0-0.2-0.1-0.2-0.2l-0.1-1.7
			c0-0.1,0.1-0.2,0.2-0.2l3.8-0.2c0.1,0,0.2,0.1,0.2,0.2l0.1,1.7c0,0.1-0.1,0.2-0.2,0.2h-0.6c-0.1,0-0.2,0.1-0.2,0.2l0.3,6
			C66.9,79.5,67,79.6,67.2,79.6z"/>
		<path class="st2" d="M83.6,70l0.1,1.7c0,0.1-0.1,0.2-0.2,0.2L82.9,72c-0.1,0-0.2,0.1-0.2,0.2l0.7,8.1c0,0.1-0.1,0.2-0.2,0.2
			l-1.8,0.2c-0.1,0-0.2,0-0.2-0.1L77,75.1c-0.1-0.2-0.4-0.1-0.4,0.2l0.3,3.5c0,0.1,0.1,0.2,0.2,0.2l0.6-0.1c0.1,0,0.2,0.1,0.2,0.2
			l0.1,1.7c0,0.1-0.1,0.2-0.2,0.2L74,81.3c-0.1,0-0.2-0.1-0.2-0.2l-0.1-1.7c0-0.1,0.1-0.2,0.2-0.2l0.6-0.1c0.1,0,0.2-0.1,0.2-0.2
			l-0.5-6c0-0.1-0.1-0.2-0.2-0.2l-0.6,0.1c-0.1,0-0.2-0.1-0.2-0.2L73,70.9c0-0.1,0.1-0.2,0.2-0.2l2.9-0.2c0.1,0,0.2,0,0.2,0.1
			l4.2,5.6c0.1,0.2,0.4,0.1,0.4-0.2l-0.3-3.5c0-0.1-0.1-0.2-0.2-0.2l-0.6,0.1c-0.1,0-0.2-0.1-0.2-0.2l-0.1-1.7
			c0-0.1,0.1-0.2,0.2-0.2L83.6,70C83.4,69.8,83.6,69.9,83.6,70z"/>
	</g>
	<g>
		<g>
			<path class="st3" d="M40.4,85.5c2.2,1.6,4.6,3.2,7.1,4.8c1.4,0.8,3.1,0.9,4.6,0.2c1.9-0.9,4.7-2.5,8-4.9
				c-3.1,0.1-6.1,0.1-9.2,0.1C47.5,85.7,44,85.6,40.4,85.5z"/>
		</g>
		<g>
			<path class="st2" d="M59.9,30.3c-0.2-2.7-3.9-3.6-6.5-3c-2.7,0.6-5.4,2-8,1.2c-0.5-0.1-0.9-0.4-1.2-0.8s-0.4-0.9-0.5-1.4
				c-0.4-3.3,1-6.5,2.5-9.5c1.2-2.6,2.5-5.1,3.7-7.6h-0.1c-17.7,0-29.8,3.2-34.9,4.9c-1.7,0.6-3,2-3.2,3.8c-1,6.4-2.3,22.9,5.9,40.3
				c1.2,2.6,2.6,5.2,4.3,7.7c0.4,0,0.7,0.1,1.1,0.1c0.2,0,0.5,0,0.7,0.1h0.5c2.1,0.2,3.9,0.3,5.6,0.5H30h0.2c0.4,0,0.8,0,1.2,0.1
				c2.9,0.2,5.8,0.3,8.7,0.4c6.3-11.2,12.5-22.5,18.8-33.7C59.5,32.4,60,31.4,59.9,30.3z"/>
			<g>
				<path class="st3" d="M70.6,66.8c1.4-0.1,3.3-0.2,5.2-0.4H76h0.2c0.3,0,0.6-0.1,0.9-0.1c1.4-2.4,2.8-5,4-7.9
					C85.6,48.2,89,35,89.4,18.1c0.1-2.2-1.5-4.2-3.6-4.8c-6-1.5-19.1-4-36.2-4.1c-1.3,2.5-2.4,5-3.6,7.5c-1.4,3-2.8,6.2-2.5,9.5
					c0.1,0.5,0.2,1,0.5,1.4s0.5,1.4,0.9,1.6c2.6,0.8,5.6-0.3,8.3-1c2.7-0.6,6.3-0.7,6.5,2c0.1,1.1-0.5,2.2-1,3.1
					c-6.3,11.2-12.6,22.6-18.9,33.8c3.6,0.1,7.3,0.1,11,0.1C57.4,67.4,64.1,67.2,70.6,66.8z"/>
			</g>
		</g>
	</g>
	<g>
		<path class="st1" d="M56.5,61.4H44.1c-0.9,0-1.6,0.7-1.6,1.6c0,0.9,0.7,1.6,1.6,1.6h12.4c0.9,0,1.6-0.7,1.6-1.6
			C58.1,62.1,57.4,61.4,56.5,61.4z"/>
		<path class="st1" d="M72.9,27.3c-0.9-2.7-2.8-4.4-5.6-4.5c-3.6-0.1-7-1-10.4-2c-2.2-0.6-4.4-1-6.6-1c-2.2,0-4.4,0.3-6.6,1
			c-3.4,1-6.8,2-10.4,2c-2.8,0-4.7,1.8-5.6,4.5c-0.8,2.6-0.4,5.1,1.2,7.4c0.8,1.2,1.4,2.7,1.9,4.1c0.4,1.2,0.5,2.5,0.8,3.7
			c1.2,4.6,2.5,9.3,3.8,13.9c0.1,0.7,0.7,1.3,1.5,1.3H39c1.6,0,3.1,0,4.7,0h1.9c0.3,0,0.6-0.1,0.9-0.3c0.3-0.2,0.5-0.5,0.6-0.9
			c0-0.1,0-0.2,0-0.3l0,0c0-0.2,0-0.3-0.1-0.5c-0.1-0.3-0.2-0.5-0.4-0.6c-0.3-0.2-0.6-0.4-1-0.4h-5c-0.4-0.1-0.6-0.5-0.5-1.2
			c0.5-3.7,0.9-7.4,1.4-11.2c0.1-0.9,0-1.4-0.9-1.8c-1.8-1.1-3.1-2.7-3.7-4.9c2.8,0,5.4,0,8,0c0,0.7,0.1,1.4,0,2
			c-0.3,3.5-0.7,7-1,10.5c-0.1,1.4-0.1,1.5,1.3,1.5c1.7,0,3.5,0,5.2,0s3.5,0,5.2,0c1.3,0,1.4-0.1,1.3-1.5c-0.4-3.5-0.7-7-1-10.5
			c-0.1-0.6,0-1.3,0-2c2.6,0,5.2,0,8,0c-0.6,2.2-1.8,3.8-3.7,4.9c-0.8,0.5-1,1-0.9,1.8c0.5,3.7,0.9,7.4,1.4,11.2
			c0.1,0.7-0.1,1.1-0.5,1.2h-5c-0.8,0-1.5,0.7-1.5,1.5l0,0c0,0.8,0.7,1.5,1.5,1.5h1.9c1.6,0,3.1,0,4.7,0H64c0.6,0,1.1-0.4,1.4-0.9
			c0-0.1,0.1-0.1,0.1-0.2c1.3-4.7,2.6-9.3,3.8-14c0.3-1.2,0.4-2.5,0.8-3.7c0.5-1.4,1-2.9,1.9-4.1C73.3,32.4,73.7,30,72.9,27.3z"/>
	</g>
</g>
</svg>
