<?xml version="1.0" encoding="utf-8"?>
<!-- Generator: Adobe Illustrator 22.1.0, SVG Export Plug-In . SVG Version: 6.00 Build 0)  -->
<svg version="1.1" id="Layer_1" xmlns="http://www.w3.org/2000/svg" xmlns:xlink="http://www.w3.org/1999/xlink" x="0px" y="0px"
	 viewBox="0 0 100 100" style="enable-background:new 0 0 100 100;" xml:space="preserve">
<style type="text/css">
	.st0{fill:#FFFFFF;}
	.st1{fill:#121F42;}
</style>
<g>
	<path class="st0" d="M85.9,13.4c-6-1.5-19-4.1-36.1-4.1c-17.7,0-29.8,3.2-34.8,4.9c-1.7,0.6-3,2-3.2,3.8c-1,6.4-2.3,22.9,5.9,40.2
		c1.2,2.6,2.6,5.1,4.3,7.7c0.4,0,0.7,0.1,1,0.1c0.2,0,0.5,0,0.7,0.1l0.5,0c2.1,0.2,3.9,0.3,5.6,0.4l0.2,0l0.2,0c0.4,0,0.8,0,1.2,0.1
		c6.4,0.4,13,0.6,19.5,0.6c6.6,0,13.3-0.2,19.8-0.6c1.4-0.1,3.3-0.2,5.1-0.4l0.2,0l0.2,0c0.3,0,0.6-0.1,0.9-0.1c1.4-2.4,2.8-5,4-7.8
		c4.5-10.2,7.8-23.3,8.3-40.1C89.6,15.9,88.1,13.9,85.9,13.4z"/>
	<g>
		<path class="st0" d="M92.1,73L92.1,73l-0.8-6.1c0-0.1-0.1-0.2-0.1-0.3c0,0,0,0,0,0c-0.1-0.1-0.1-0.2-0.2-0.2c0,0,0,0,0,0
			c-0.1-0.1-0.2-0.1-0.3-0.2c0,0,0,0,0,0c-0.1,0-0.2-0.1-0.3-0.1c-0.1,0-0.1,0-0.2,0c-4.5,0.6-9.1,1.1-13.8,1.5c-0.1,0-0.3,0-0.4,0
			c-1.7,0.1-3.4,0.3-5.2,0.4c-6.5,0.4-13.1,0.6-19.9,0.6c-7,0-14-0.2-20.8-0.7c-0.1,0-0.3,0-0.4,0c-1.9-0.1-3.7-0.3-5.6-0.5
			c-0.4,0-0.8-0.1-1.2-0.1c-4.3-0.4-8.4-0.9-12.4-1.4c-0.1,0-0.1,0-0.2,0c-0.1,0-0.2,0-0.3,0.1c0,0,0,0-0.1,0
			c-0.1,0-0.2,0.1-0.3,0.2c0,0,0,0,0,0c-0.1,0.1-0.1,0.2-0.2,0.2c0,0,0,0,0,0c-0.1,0.1-0.1,0.2-0.1,0.3c0,0,0,0,0,0l-0.9,6.3
			l-0.2,1.4l-0.9,5.8c0,0.1,0,0.3,0,0.4c0.1,0.3,0.3,0.6,0.6,0.7c0.1,0,0.1,0,0.2,0.1c1.7,0.2,3.4,0.5,5.1,0.7
			c5.1,0.6,10.3,1.1,15.7,1.5c3.2,0.2,6.5,0.4,9.8,0.5c4,0.1,8.1,0.2,12.2,0.2c3.7,0,7.4-0.1,11-0.2c5.2-0.2,10.4-0.5,15.4-0.9
			c5.1-0.4,10.1-1,15-1.6c0.3,0,0.5-0.2,0.7-0.4c0.1-0.2,0.2-0.4,0.2-0.6c0-0.1,0-0.1,0-0.2L92.1,73z"/>
		<path class="st0" d="M8.2,65.8L8.2,65.8l0.1-0.1c0.1-0.2,0.3-0.4,0.5-0.6c0,0,0.1-0.1,0.1-0.1c0.2-0.1,0.4-0.3,0.6-0.4
			c0,0,0.1,0,0.1,0c0.2-0.1,0.5-0.1,0.7-0.1l0.1,0c0.1,0,0.2,0,0.3,0c3,0.4,6.3,0.8,9.7,1.2c-1.4-2.3-2.7-4.6-3.8-7
			c-0.1-0.2-0.2-0.5-0.3-0.7c-4.1-0.4-8-0.8-11.9-1.4c-0.1,0-0.1,0-0.2,0c-0.1,0-0.2,0-0.3,0.1c0,0,0,0-0.1,0
			c-0.1,0-0.2,0.1-0.3,0.2c0,0,0,0,0,0c-0.1,0.1-0.1,0.2-0.2,0.2c0,0,0,0,0,0c-0.1,0.1-0.1,0.2-0.1,0.3c0,0,0,0,0,0l2.6,5l1.4,2.6v0
			l-6,5.8c0,0.1,0,0.3,0,0.4c0.1,0.3,0.3,0.6,0.6,0.7c0.1,0,0.1,0,0.2,0.1c1.7,0.2,3.4,0.5,5.1,0.7c0,0,0,0,0,0l0,0L8,66.5
			C8,66.2,8.1,66,8.2,65.8z"/>
		<path class="st0" d="M99.4,70.9l-6-5.8v0l1.4-2.6l2.6-5c0,0,0,0,0,0c0-0.1-0.1-0.2-0.1-0.3c0,0,0,0,0,0c-0.1-0.1-0.1-0.2-0.2-0.2
			c0,0,0,0,0,0c-0.1-0.1-0.2-0.1-0.3-0.2c0,0,0,0-0.1,0c-0.1,0-0.2-0.1-0.3-0.1c-0.1,0-0.1,0-0.2,0c-4,0.6-8.2,1.1-12.4,1.4
			c-0.4,0-0.7,0.1-1.1,0.1c-0.1,0.2-0.2,0.4-0.3,0.7c-1.1,2.5-2.3,4.9-3.6,7.2c3.8-0.4,7.6-0.8,11.2-1.3c0.1,0,0.2,0,0.3,0l0.1,0
			c0.2,0,0.5,0,0.7,0.1c0,0,0.1,0,0.1,0c0.2,0.1,0.4,0.2,0.6,0.4c0,0,0.1,0.1,0.1,0.1c0.2,0.2,0.3,0.4,0.5,0.6c0,0,0,0.1,0.1,0.1
			c0.1,0.2,0.2,0.5,0.2,0.7l0.8,6.1l0,0c0,0,0,0,0.1,0c1.7-0.2,3.4-0.4,5.1-0.7c0.1,0,0.1,0,0.2-0.1c0.3-0.1,0.6-0.4,0.6-0.7
			C99.4,71.2,99.4,71.1,99.4,70.9z"/>
	</g>
	<g>
		<path class="st1" d="M28.6,70.6l-0.2,1.7c0,0.1-0.1,0.2-0.2,0.2l-0.6-0.1c-0.1,0-0.2,0.1-0.2,0.2l-0.6,6c0,0.1,0.1,0.2,0.2,0.2
			l0.6,0.1c0.1,0,0.2,0.1,0.2,0.2l-0.2,1.7c0,0.1-0.1,0.2-0.2,0.2l-3.8-0.4c-0.1,0-0.2-0.1-0.2-0.2l0.2-1.7c0-0.1,0.1-0.2,0.2-0.2
			l0.6,0.1c0.1,0,0.2-0.1,0.2-0.2l0.3-3.6c0-0.2-0.3-0.3-0.4-0.2l-1.8,2.3c-0.1,0.1-0.3,0.1-0.4,0l-1.3-2.6
			c-0.1-0.2-0.4-0.1-0.4,0.1l-0.3,3.6c0,0.1,0.1,0.2,0.2,0.2l0.6,0.1c0.1,0,0.2,0.1,0.2,0.2l-0.2,1.7c0,0.1-0.1,0.2-0.2,0.2L17.1,80
			c-0.1,0-0.2-0.1-0.2-0.2l0.2-1.7c0-0.1,0.1-0.2,0.2-0.2l0.6,0.1c0.1,0,0.2-0.1,0.2-0.2l0.6-6c0-0.1-0.1-0.2-0.2-0.2l-0.6-0.1
			c-0.1,0-0.2-0.1-0.2-0.2l0.2-1.7c0-0.1,0.1-0.2,0.2-0.2l2.9,0.3c0.1,0,0.1,0.1,0.2,0.1l1.6,3.1c0.1,0.1,0.3,0.2,0.4,0l2.1-2.8
			c0-0.1,0.1-0.1,0.2-0.1l2.9,0.3C28.5,70.3,28.6,70.4,28.6,70.6z"/>
		<path class="st1" d="M43.9,79.9l-0.1,1.7c0,0.1-0.1,0.2-0.2,0.2l-3.8-0.2c-0.1,0-0.2-0.1-0.2-0.2l0.1-1.7c0-0.1,0.1-0.2,0.2-0.2
			l0.8,0l-0.2-0.9c0-0.1-0.1-0.2-0.2-0.2l-3-0.1c-0.1,0-0.2,0.1-0.2,0.2l-0.3,0.9l0.8,0c0.1,0,0.2,0.1,0.2,0.2l-0.1,1.7
			c0,0.1-0.1,0.2-0.2,0.2l-3.8-0.2c-0.1,0-0.2-0.1-0.2-0.2l0.1-1.7c0-0.1,0.1-0.2,0.2-0.2l0.6,0c0.1,0,0.2-0.1,0.2-0.2l2.8-8.1
			c0-0.1,0.1-0.2,0.2-0.2l2.9,0.1c0.1,0,0.2,0.1,0.2,0.2l2.1,8.3c0,0.1,0.1,0.2,0.2,0.2l0.6,0C43.8,79.7,43.9,79.8,43.9,79.9z
			 M39.5,76.3c0.2,0,0.3-0.1,0.2-0.3l-0.8-3l-0.1,0l-1,2.9c0,0.1,0.1,0.3,0.2,0.3L39.5,76.3z"/>
		<path class="st1" d="M53.7,71.2c0.6,0,1.1,0.1,1.7,0.3c0.5,0.2,1,0.5,1.4,0.9c0.4,0.4,0.7,0.8,0.9,1.4c0.2,0.5,0.3,1.1,0.3,1.7
			l0,2.1c0,0.6-0.1,1.1-0.3,1.7c-0.2,0.5-0.5,1-0.9,1.4c-0.4,0.4-0.8,0.7-1.4,0.9c-0.5,0.2-1.1,0.3-1.7,0.3l-4.1,0
			c-0.1,0-0.2-0.1-0.2-0.2l0-1.7c0-0.1,0.1-0.2,0.2-0.2l0.6,0c0.1,0,0.2-0.1,0.2-0.2l0-6c0-0.1-0.1-0.2-0.2-0.2l-0.6,0
			c-0.1,0-0.2-0.1-0.2-0.2l0-1.7c0-0.1,0.1-0.2,0.2-0.2L53.7,71.2z M53.8,79.7c0.3,0,0.6-0.1,0.8-0.2c0.3-0.1,0.5-0.3,0.7-0.5
			c0.2-0.2,0.3-0.4,0.5-0.7c0.1-0.3,0.2-0.5,0.2-0.8l0-2.1c0-0.3-0.1-0.6-0.2-0.8c-0.1-0.3-0.3-0.5-0.5-0.7
			c-0.2-0.2-0.4-0.3-0.7-0.5c-0.3-0.1-0.5-0.2-0.8-0.2l-0.8,0c-0.1,0-0.2,0.1-0.2,0.2l0,6c0,0.1,0.1,0.2,0.2,0.2L53.8,79.7z"/>
		<path class="st1" d="M67.1,79.4l0.6,0c0.1,0,0.2,0.1,0.2,0.2l0.1,1.7c0,0.1-0.1,0.2-0.2,0.2L64,81.7c-0.1,0-0.2-0.1-0.2-0.2
			l-0.1-1.7c0-0.1,0.1-0.2,0.2-0.2l0.6,0c0.1,0,0.2-0.1,0.2-0.2l-0.3-6c0-0.1-0.1-0.2-0.2-0.2l-0.6,0c-0.1,0-0.2-0.1-0.2-0.2
			l-0.1-1.7c0-0.1,0.1-0.2,0.2-0.2l3.8-0.2c0.1,0,0.2,0.1,0.2,0.2l0.1,1.7c0,0.1-0.1,0.2-0.2,0.2l-0.6,0c-0.1,0-0.2,0.1-0.2,0.2
			l0.3,6C66.9,79.3,67,79.4,67.1,79.4z"/>
		<path class="st1" d="M83.5,69.9l0.1,1.7c0,0.1-0.1,0.2-0.2,0.2l-0.6,0.1c-0.1,0-0.2,0.1-0.2,0.2l0.7,8.1c0,0.1-0.1,0.2-0.2,0.2
			l-1.8,0.2c-0.1,0-0.2,0-0.2-0.1l-4.2-5.6c-0.1-0.2-0.4-0.1-0.4,0.2l0.3,3.5c0,0.1,0.1,0.2,0.2,0.2l0.6-0.1c0.1,0,0.2,0.1,0.2,0.2
			l0.1,1.7c0,0.1-0.1,0.2-0.2,0.2L74,81.2c-0.1,0-0.2-0.1-0.2-0.2l-0.1-1.7c0-0.1,0.1-0.2,0.2-0.2l0.6-0.1c0.1,0,0.2-0.1,0.2-0.2
			l-0.5-6c0-0.1-0.1-0.2-0.2-0.2l-0.6,0.1c-0.1,0-0.2-0.1-0.2-0.2l-0.1-1.7c0-0.1,0.1-0.2,0.2-0.2l2.9-0.2c0.1,0,0.2,0,0.2,0.1
			l4.2,5.6c0.1,0.2,0.4,0.1,0.4-0.2l-0.3-3.5c0-0.1-0.1-0.2-0.2-0.2l-0.6,0.1c-0.1,0-0.2-0.1-0.2-0.2l-0.1-1.7
			c0-0.1,0.1-0.2,0.2-0.2l3.8-0.3C83.4,69.7,83.5,69.8,83.5,69.9z"/>
	</g>
	<g>
		<g>
			<g>
				<path class="st0" d="M40.5,85.4c2.2,1.6,4.6,3.2,7.1,4.7c1.4,0.8,3.1,0.9,4.6,0.2c1.9-0.9,4.7-2.5,8-4.9c-3,0.1-6.1,0.1-9.1,0.1
					C47.5,85.5,44,85.5,40.5,85.4z"/>
			</g>
		</g>
	</g>
	<g>
		<path class="st1" d="M56.5,61.3H44.1c-0.9,0-1.6,0.7-1.6,1.6c0,0.9,0.7,1.6,1.6,1.6h12.4c0.9,0,1.6-0.7,1.6-1.6
			C58.1,62,57.4,61.3,56.5,61.3z"/>
		<path class="st1" d="M72.8,27.3c-0.9-2.7-2.8-4.4-5.6-4.5c-3.6-0.1-7-1-10.4-2c-2.2-0.6-4.4-1-6.6-1c-2.2,0-4.4,0.3-6.6,1
			c-3.4,1-6.8,2-10.4,2c-2.8,0-4.7,1.7-5.6,4.5c-0.8,2.6-0.4,5.1,1.2,7.4c0.8,1.2,1.4,2.7,1.9,4.1c0.4,1.2,0.5,2.5,0.8,3.7
			c1.2,4.6,2.5,9.2,3.8,13.8c0.1,0.7,0.7,1.3,1.5,1.3H39c1.5,0,3.1,0,4.6,0h1.8c0.3,0,0.6-0.1,0.9-0.3c0.3-0.2,0.5-0.5,0.6-0.9
			c0-0.1,0-0.2,0-0.3v0c0-0.2,0-0.3-0.1-0.5c-0.1-0.3-0.2-0.5-0.4-0.6c-0.3-0.2-0.6-0.4-1-0.4h-5c-0.4-0.1-0.6-0.5-0.5-1.2
			c0.5-3.7,0.9-7.4,1.4-11.1c0.1-0.9,0-1.3-0.9-1.8c-1.8-1-3.1-2.7-3.7-4.8c2.8,0,5.4,0,8,0c0,0.7,0.1,1.4,0,2
			c-0.3,3.5-0.7,7-1,10.5c-0.1,1.4-0.1,1.5,1.3,1.5c1.7,0,3.5,0,5.2,0c1.7,0,3.5,0,5.2,0c1.3,0,1.4-0.1,1.3-1.5
			c-0.4-3.5-0.7-7-1-10.5c-0.1-0.6,0-1.3,0-2c2.6,0,5.2,0,8,0c-0.6,2.2-1.8,3.8-3.7,4.8c-0.8,0.5-1,1-0.9,1.8
			c0.5,3.7,0.9,7.4,1.4,11.1c0.1,0.7-0.1,1.1-0.5,1.2h-5c-0.8,0-1.5,0.7-1.5,1.5v0c0,0.8,0.7,1.5,1.5,1.5h1.9c1.5,0,3.1,0,4.6,0h2.2
			c0.6,0,1.1-0.4,1.4-0.9c0-0.1,0.1-0.1,0.1-0.2c1.3-4.6,2.6-9.3,3.8-14c0.3-1.2,0.4-2.5,0.8-3.7c0.5-1.4,1-2.9,1.9-4.1
			C73.3,32.4,73.7,30,72.8,27.3z"/>
	</g>
</g>
</svg>
